<svg xmlns="http://www.w3.org/2000/svg" width="1280" height="300" viewBox="0 0 1280 300" font-family="ui-sans-serif,-apple-system,'Segoe UI',Inter,Roboto,Helvetica,Arial,sans-serif"><defs><linearGradient id="g" x1="0" y1="0" x2="0" y2="1"><stop offset="0" stop-color="#F6F4EF"/><stop offset="1" stop-color="#EFECE4"/></linearGradient></defs><rect width="1280" height="300" fill="url(#g)"/><rect width="1280" height="4" fill="#1E6B4F"/><polygon points="502.0,74.0 521.1,85.0 521.1,107.0 502.0,118.0 482.9,107.0 482.9,85.0" fill="none" stroke="#1E6B4F" stroke-width="3.0"/><text x="538" y="116" font-size="62" font-weight="600" fill="#1B1A17" font-family="'Iowan Old Style','Palatino Linotype',Palatino,Georgia,serif">orgkit</text><line x1="640" y1="128" x2="640" y2="150" stroke="#CFC9BC" stroke-width="2"/><line x1="420" y1="150" x2="860" y2="150" stroke="#CFC9BC" stroke-width="2"/><line x1="420" y1="150" x2="420" y2="168" stroke="#CFC9BC" stroke-width="2"/><rect x="343" y="168" width="155" height="40" rx="10" fill="#FFFFFF" stroke="#CFC9BC"/><rect x="343" y="168" width="4" height="40" rx="2" fill="#1E6B4F"/><text x="422" y="193" font-size="16" fill="#8C8676" text-anchor="middle">engineering</text><line x1="640" y1="150" x2="640" y2="168" stroke="#CFC9BC" stroke-width="2"/><rect x="590" y="168" width="100" height="40" rx="10" fill="#FFFFFF" stroke="#CFC9BC"/><rect x="590" y="168" width="4" height="40" rx="2" fill="#1E6B4F"/><text x="642" y="193" font-size="16" fill="#8C8676" text-anchor="middle">growth</text><line x1="860" y1="150" x2="860" y2="168" stroke="#CFC9BC" stroke-width="2"/><rect x="810" y="168" width="100" height="40" rx="10" fill="#FFFFFF" stroke="#CFC9BC"/><rect x="810" y="168" width="4" height="40" rx="2" fill="#1E6B4F"/><text x="862" y="193" font-size="16" fill="#8C8676" text-anchor="middle">design</text><text x="640" y="242" font-size="15" fill="#8C8676" text-anchor="middle" font-family="ui-monospace,'SF Mono','JetBrains Mono',Menlo,monospace">a self-maintaining memory system for Claude Code</text></svg>